<?xml version="1.0" encoding="UTF-8" standalone="no"?>
<!-- Created with Inkscape (http://www.inkscape.org/) -->

<svg
   xmlns:dc="http://purl.org/dc/elements/1.1/"
   xmlns:cc="http://creativecommons.org/ns#"
   xmlns:rdf="http://www.w3.org/1999/02/22-rdf-syntax-ns#"
   xmlns:svg="http://www.w3.org/2000/svg"
   xmlns="http://www.w3.org/2000/svg"
   xmlns:sodipodi="http://sodipodi.sourceforge.net/DTD/sodipodi-0.dtd"
   xmlns:inkscape="http://www.inkscape.org/namespaces/inkscape"
   version="1.1"
   id="svg815"
   width="2000"
   height="2000"
   viewBox="0 0 2000 2000"
   sodipodi:docname="LOGO.svg"
   inkscape:version="0.92.2 (5c3e80d, 2017-08-06)"
   inkscape:export-filename="C:\Users\2015j\Documents\GitHub\Mock-Trial-Calculations\Resources\LOGO(128x128).png"
   inkscape:export-xdpi="6.1439996"
   inkscape:export-ydpi="6.1439996">
  <metadata
     id="metadata821">
    <rdf:RDF>
      <cc:Work
         rdf:about="">
        <dc:format>image/svg+xml</dc:format>
        <dc:type
           rdf:resource="http://purl.org/dc/dcmitype/StillImage" />
        <dc:title></dc:title>
      </cc:Work>
    </rdf:RDF>
  </metadata>
  <defs
     id="defs819" />
  <sodipodi:namedview
     pagecolor="#ffffff"
     bordercolor="#666666"
     borderopacity="1"
     objecttolerance="10"
     gridtolerance="10"
     guidetolerance="10"
     inkscape:pageopacity="0"
     inkscape:pageshadow="2"
     inkscape:window-width="3840"
     inkscape:window-height="2104"
     id="namedview817"
     showgrid="false"
     inkscape:zoom="0.8885"
     inkscape:cx="1358.1971"
     inkscape:cy="1042.3024"
     inkscape:window-x="-16"
     inkscape:window-y="-16"
     inkscape:window-maximized="1"
     inkscape:current-layer="svg815" />
  <g
     id="g825">
    <path
       style="fill:#fefefe"
       d="M 0,1000 V 0 H 1000 2000 V 1000 2000 H 1000 0 Z"
       id="path841"
       inkscape:connector-curvature="0" />
    <path
       style="fill:#a1a1a1"
       d="m 784.26455,1779.4584 c -19.03774,-5.1271 -35.83753,-21.5234 -44.52794,-43.4584 -5.40282,-13.637 -6.20513,-18.344 -6.22139,-36.5 -0.0132,-14.7872 0.28435,-18.0413 2.28626,-25 6.44922,-22.4177 21.06053,-41.7223 38.19852,-50.4683 12.17039,-6.2109 13.19904,-6.3435 54,-6.9627 l 37.5,-0.569 0.26089,-42.9477 c 0.19944,-32.8322 0.55274,-43.1331 1.5,-43.7347 0.68151,-0.4328 211.71081,-0.7939 468.95391,-0.8023 461.4006,-0.015 467.7288,0.011 468.75,1.919 0.6664,1.2452 1.0352,16.8895 1.0352,43.9169 v 41.9826 l 37.75,0.3702 c 36.3505,0.3565 37.991,0.4555 44.25,2.6711 23.165,8.1997 41.3254,29.9746 48.1624,57.7479 3.232,13.129 3.027,32.2691 -0.4889,45.6452 -7.5487,28.7188 -27.0097,50.1168 -51.1336,56.2232 -5.2785,1.3361 -68.2325,1.5011 -550.5,1.4428 -465.29184,-0.056 -545.30183,-0.271 -549.77535,-1.4758 z M 131,1751.5489 C 109.39561,1746.8805 92.64091,1736.96 80.369828,1721.5707 67.242267,1705.1073 59.813969,1682.0768 61.4783,1663 c 1.479501,-16.9583 6.591911,-31.8036 14.927524,-43.3463 4.419206,-6.1195 47.336696,-49.0849 501.998126,-502.5585 L 816.30789,879.81284 741.15395,804.65396 C 699.81928,763.31657 666,728.81931 666,727.99339 666,726.45227 994.82986,397 996.36806,397 997.66174,397 1430,828.09662 1430,829.38659 1430,830.83199 1100.8419,1160 1099.3966,1160 c -0.599,0 -37.4958,-36.8906 -81.9929,-81.9792 -44.49702,-45.0885 -81.40361,-81.98851 -82.01461,-81.99997 -0.61099,-0.0115 -164.74034,164.11667 -364.73188,364.72917 -199.99154,200.6125 -367.32978,368.015 -371.86276,372.0055 -9.2274,8.1231 -20.00384,13.9615 -31.79445,17.2255 -9.82759,2.7206 -27.17034,3.4759 -36,1.5679 z m 1075,-414.9763 c -17.4582,-3.8803 -33.4743,-12.8949 -47.076,-26.4966 -12.049,-12.049 -21.2645,-27.5769 -25.5647,-43.076 -2.6033,-9.3831 -2.5959,-32.3361 0.013,-40 5.1779,-15.2109 -4.2553,-5.2538 175.5511,-185.303 101.8442,-101.98172 169.8378,-169.32521 173.3412,-171.68359 11.9067,-8.01539 25.8873,-11.15939 41.0673,-9.23535 31.0054,3.92988 59.5663,24.98029 74.2459,54.72194 5.9214,11.99718 8.5783,22.54522 8.69,34.5 0.1066,11.40812 -1.318,18.03075 -6.0137,27.95624 -3.2834,6.94023 -5.9739,9.95066 -38.8771,43.49996 -19.4423,19.8241 -96.2183,97.1346 -170.6133,171.8012 -135.0391,135.532 -135.276,135.763 -142.7636,139.1372 -4.125,1.859 -9.8846,3.8806 -12.7992,4.4926 -6.7897,1.4258 -22.1135,1.2607 -29.2008,-0.3146 z M 567.5,695.58 C 537.29721,688.57401 512.31506,668.15466 498.88603,639.49787 492.73995,626.38248 491.5,620.50711 491.5,604.5 c 0,-15.73081 1.55123,-21.85961 8.2259,-32.5 2.29875,-3.66454 59.73592,-61.76047 172.11211,-174.08609 159.02539,-158.95382 169.07581,-168.79832 175.90472,-172.3007 23.68514,-12.14754 55.22834,-7.15961 81.18797,12.83827 8.74775,6.73879 20.2747,19.42427 25.78187,28.37312 2.77153,4.50359 6.53379,12.57294 8.36057,17.93188 3.09886,9.09066 3.32494,10.64808 3.37413,23.24352 0.0455,11.63921 -0.27813,14.51001 -2.34761,20.82758 -1.32019,4.03016 -4.17637,10.10516 -6.34706,13.5 -2.70247,4.22649 -26.22811,28.55601 -74.62255,77.17242 -38.8717,39.05 -114.47182,114.9942 -168.00027,168.76489 -58.68007,58.94563 -99.12439,98.81972 -101.85754,100.42146 -9.14603,5.35992 -16.95665,7.50727 -28.77224,7.91026 -7.14295,0.24363 -13.10384,-0.11284 -17,-1.01661 z"
       id="path839"
       inkscape:connector-curvature="0" />
    <path
       style="fill:#868686"
       d="m 784.11233,1778.4195 c -15.09099,-4.0585 -31.08604,-17.8743 -39.26976,-33.9195 -5.04452,-9.8904 -8.18017,-18.8358 -9.79159,-27.9337 -1.56074,-8.8116 -1.28597,-27.5081 0.53434,-36.3585 5.79561,-28.1782 24.89954,-51.632 48.41468,-59.4382 6.05649,-2.0106 9.09281,-2.1957 44.5,-2.7137 l 38,-0.5559 0.5,-43.5 0.5,-43.5 467.3963,-0.2511 c 344.7107,-0.1851 467.7516,0.044 468.75,0.8725 1.0998,0.9127 1.3537,9.1665 1.3537,44.001 V 1618 l 33.75,0.02 c 18.5625,0.011 36.9,0.4677 40.75,1.015 14.0172,1.9928 30.1485,12.1253 39.9986,25.1242 6.3988,8.4442 12.946,22.4186 15.6489,33.4011 3.2254,13.1053 3.0472,32.3147 -0.4221,45.5035 -7.4655,28.381 -26.4634,49.3585 -50.1855,55.4148 -5.3012,1.3534 -66.1607,1.5143 -550.5,1.4558 -472.21469,-0.057 -545.25549,-0.2583 -549.92757,-1.5147 z M 131,1750.4782 C 113.35132,1746.8566 99.565401,1739.6011 87.396927,1727.5301 77.40963,1717.6229 72.668626,1710.1666 67.348621,1696 57.523859,1669.8376 62.909164,1636.5866 80.275325,1616.1853 83.148896,1612.8095 250.0875,1445.9524 451.25,1245.3917 652.4125,1044.831 817,880.23979 817,879.63348 c 0,-0.60631 -33.75,-34.86339 -75,-76.12686 -41.25,-41.26346 -75,-75.47097 -75,-76.01669 0,-0.54572 73.73377,-74.72495 163.85281,-164.84274 C 937.84246,455.65903 995.2663,398.9187 996.32123,399.14833 997.81972,399.47451 1429,827.81542 1429,828.97786 c 0,0.28843 -74.1767,74.70006 -164.837,165.35918 l -164.8371,164.83476 -48.388,-48.8359 C 932.87305,991.17829 936.30477,994.55266 934.21454,995.56338 933.14919,996.07852 766.43902,1162.775 563.74749,1366 229.83043,1700.7959 194.47933,1735.9416 187.35872,1740.2014 170.29267,1750.4111 149.31415,1754.2364 131,1750.4782 Z m 1074.4095,-414.9624 c -19.1105,-4.158 -39.645,-17.2929 -53.041,-33.9275 -7.1851,-8.9222 -15.2452,-24.3794 -18.0358,-34.5883 -2.5748,-9.4193 -2.5521,-32.3867 0.04,-40 4.771,-14.0155 -2.3644,-6.5313 178.3987,-187.1176 161.2841,-161.12629 171.074,-170.71194 176.963,-173.2711 11.8204,-5.1367 23.4159,-6.59809 36.2661,-4.57067 42.3119,6.67569 78.8672,47.00832 79.2686,87.45937 0.1176,11.84938 -1.2538,18.3656 -5.9981,28.5 -3.3901,7.24182 -5.5652,9.56541 -63.1865,67.5 -32.8215,33 -109.3859,109.9944 -170.1432,171.0986 -108.278,108.8965 -110.616,111.1691 -117.9542,114.6531 -4.1176,1.9549 -9.8712,4.048 -12.7858,4.6513 -7.0392,1.4572 -22.2214,1.2599 -29.7913,-0.3872 z M 567.5,694.58 c -33.55156,-7.78279 -60.74233,-32.7206 -72.06516,-66.09401 -2.14981,-6.33644 -2.81001,-10.46466 -3.19626,-19.98599 -0.59195,-14.59192 0.58227,-20.92744 5.80004,-31.29418 3.77516,-7.50053 8.41522,-12.24049 174.16993,-177.91962 169.45926,-169.38199 170.32831,-170.23076 177.83459,-173.6847 9.67995,-4.45415 18.82105,-6.03954 30.3962,-5.27178 11.89712,0.78911 18.9048,2.7411 31.19862,8.69035 24.52567,11.86851 43.40924,33.37741 51.34202,58.47993 3.05994,9.68287 3.81263,26.52422 1.60448,35.89955 -3.80681,16.16282 -2.64699,14.76339 -62.24128,75.10045 C 872.46557,428.75 795.70319,506.01385 731.76012,570.19745 611.19239,691.21871 613.92339,688.64849 601.0481,693.21396 593.74038,695.80521 575.91153,696.53118 567.5,694.58 Z"
       id="path837"
       inkscape:connector-curvature="0" />
    <path
       style="fill:#7a7a7a"
       d="m 789,1779.3333 c -6.276,-1.0058 -17.08565,-5.8091 -23.18354,-10.3016 -12.93023,-9.526 -22.67659,-24.4408 -28.44661,-43.5317 -2.46817,-8.1663 -2.72644,-10.5285 -2.78798,-25.5 -0.0589,-14.3284 0.2322,-17.5391 2.21188,-24.395 7.58276,-26.2605 24.0301,-46.0345 44.81703,-53.8818 5.65334,-2.1342 7.39123,-2.2333 43.38922,-2.475 20.625,-0.1385 38.5125,-0.4846 39.75,-0.7691 l 2.25,-0.5172 v -43.374 c 0,-38.6289 0.17305,-43.4403 1.58179,-43.9809 2.06826,-0.7937 931.76811,-0.7937 933.83641,0 1.4082,0.5404 1.5818,5.292 1.5818,43.3 0,31.8723 0.3041,42.9971 1.2,43.893 0.8886,0.8886 10.6836,1.2063 37.75,1.2244 21.4485,0.014 38.4093,0.4508 41.05,1.0563 18.6273,4.2711 37.6973,22.3897 46.5333,44.2116 4.6017,11.3648 6.4667,21.5186 6.4667,35.2077 0,25.6741 -8.6784,47.4801 -25.1024,63.0744 -7.2288,6.8636 -13.1646,10.6023 -22.778,14.3471 l -6.6196,2.5785 -545.5,0.117 c -300.025,0.064 -546.625,-0.063 -548,-0.2837 z m -654.24228,-28.3637 c -8.72092,-1.3604 -23.38871,-6.5763 -31.68874,-11.2686 -8.680105,-4.9072 -20.936442,-16.5122 -26.568637,-25.1567 -4.608774,-7.0738 -11.133953,-23.2227 -12.643164,-31.2901 -1.430317,-7.6458 -0.462487,-30.1199 1.625851,-37.7542 0.902705,-3.3 3.659326,-10.275 6.125826,-15.5 l 4.484544,-9.5 370.49491,-370 C 650.36052,1047 817.0645,880.05111 817.04161,879.50247 c -0.0229,-0.54865 -33.90329,-34.86145 -75.2898,-76.25067 L 666.50362,727.99866 831.00181,563.48236 C 921.47582,472.99839 996.01914,399.0862 996.65364,399.23303 998.37775,399.63202 1427.443,827.0836 1427.8517,828.80941 1428.2163,830.34925 1101.3836,1158 1099.483,1158 c -0.5606,0 -17.4362,-16.5389 -37.5012,-36.7531 C 952.02307,1010.4705 935.65087,994.19674 934.57732,994.6087 c -0.64587,0.24785 -166.52749,166.3059 -368.62582,369.0179 -203.34882,203.9662 -370.17866,370.5271 -373.55804,372.9557 -15.83129,11.3773 -39.32906,17.2429 -57.63574,14.3873 z M 1206.5156,1335.3405 c -28.9187,-6.1959 -55.8097,-28.6725 -67.6815,-56.5709 -3.8097,-8.9526 -6.8035,-23.0249 -6.821,-32.0618 -0.018,-9.1295 2.4926,-20.7978 6.176,-28.7078 2.8413,-6.1017 13.4829,-16.9561 173.6688,-177.1421 C 1472.7462,879.96971 1482.8715,870.04494 1489,867.22532 c 9.1831,-4.22503 16.0715,-5.64271 27,-5.55681 38.9216,0.30594 78.3242,33.2886 87.391,73.15215 2.0137,8.85329 2.0455,22.702 0.072,31.07623 -0.8294,3.51828 -3.1525,9.59328 -5.1625,13.5 -3.3553,6.52146 -10.415,13.89973 -86.2122,90.10311 -239.8366,241.1215 -256.1295,257.2741 -263.319,261.0521 -11.853,6.2286 -27.3399,7.9837 -42.2533,4.7884 z M 569.5,694.58283 C 549.68136,690.70481 533.60876,681.66181 518.47293,665.87324 501.39868,648.06266 492,626.16758 492,604.20212 c 0,-9.23113 2.76841,-21.08105 6.66447,-28.52664 2.10993,-4.03219 39.94494,-42.46313 171.27185,-173.96954 96.30725,-96.43888 170.87757,-170.3405 173.96164,-172.40167 2.96887,-1.98418 8.59387,-4.74742 12.5,-6.14054 9.83442,-3.50744 27.31498,-3.67428 38.89054,-0.37118 30.67347,8.7527 57.36299,33.71167 66.52064,62.20745 6.18021,19.2309 5.40011,35.90372 -2.43302,52 -4.12377,8.47393 13.20966,-9.25622 -223.42652,228.54013 -129.21054,129.84402 -123.28813,124.31299 -137.08102,128.02197 -7.98599,2.14748 -21.25371,2.60861 -29.36858,1.02073 z"
       id="path835"
       inkscape:connector-curvature="0" />
    <path
       style="fill:#626262"
       d="m 789.76339,1778.9708 c -19.6927,-3.3311 -36.18011,-17.0211 -46.40421,-38.5309 -6.64125,-13.972 -8.75626,-24.0303 -8.71382,-41.4399 0.0427,-17.526 1.87961,-25.5483 9.27332,-40.5 9.25851,-18.7227 21.91105,-30.588 39.58132,-37.1184 4.44237,-1.6418 9.34953,-1.9055 44,-2.3647 l 39,-0.5169 0.5,-43.5 0.5,-43.5 468.2395,-0.2511 468.2395,-0.251 0.2605,43.751 0.2605,43.7511 39,0.549 c 42.275,0.5952 42.064,0.569 53.7279,6.6613 18.405,9.6135 32.9132,30.7193 37.9991,55.2797 2.5132,12.1365 2.0318,30.4574 -1.1171,42.51 -6.9429,26.5744 -25.1569,47.0754 -48.2409,54.2981 -4.9979,1.5638 -42.9021,1.6901 -548.369,1.8269 -298.65,0.081 -545.13148,-0.2135 -547.73661,-0.6542 z M 130.5,1749.9413 c -30.737004,-7.5334 -50.27563,-23.7219 -61.508629,-50.9622 -4.726316,-11.4615 -6.361228,-21.5135 -5.685505,-34.9566 0.851605,-16.9421 4.727494,-29.2869 13.193641,-42.0218 3.22839,-4.8561 103.623763,-105.5801 372.210643,-373.4289 202.28442,-201.7286 367.91371,-367.52003 368.06509,-368.42549 0.17426,-1.04237 -27.06395,-28.97531 -74.25,-76.14379 C 701.53636,763.0289 668,728.82839 668,728.00137 668,726.4557 994.8183,399 996.36096,399 997.65505,399 1428,828.0946 1428,829.38493 1428,830.827 1100.8514,1158 1099.4094,1158 c -0.5986,0 -37.4981,-36.8933 -81.9989,-81.9851 -44.50076,-45.0917 -81.41055,-81.99173 -82.02173,-81.99995 -0.61117,-0.008 -164.51876,163.89755 -364.23908,364.23505 -199.72033,200.3375 -366.91983,367.6676 -371.55446,371.8447 -9.14819,8.2451 -19.63718,14.2917 -31.09523,17.9258 -5.43242,1.7229 -10.02318,2.2963 -20.5,2.5606 -7.425,0.1873 -15.3,-0.1006 -17.5,-0.6398 z m 1080.9766,-413.8632 c -36.5275,-5.8493 -68.3093,-35.4155 -77.1259,-71.7492 -2.2872,-9.4257 -2.2645,-26.8529 0.046,-35.3289 4.191,-15.3749 -6.3447,-4.2127 177.523,-188.0804 147.3326,-147.33266 170.3798,-169.99298 175.6735,-172.72501 20.7647,-10.71651 50.1426,-7.36345 74.0993,8.45734 14.7231,9.72298 30.489,28.61525 37.0544,44.40217 9.0538,21.77037 7.9665,45.00843 -2.8989,61.9579 -5.201,8.11319 -336.9579,341.4924 -343.9904,345.6725 -10.9837,6.5287 -27.2188,9.5013 -40.3809,7.3936 z M 573.5,694.94025 C 543.93233,691.49116 513.91306,668.73717 500.42989,639.55462 490.16953,617.34742 489.53801,595.72555 498.60283,577 502.15218,569.66795 506.03217,565.70258 671.86674,399.92303 855.97931,215.87155 844.8593,226.36116 860.1129,222.34876 c 8.95953,-2.35677 24.11011,-2.09635 34.3871,0.59106 15.76985,4.12378 29.063,11.82669 42.37324,24.55378 10.09031,9.64823 15.87588,17.53087 21.03755,28.66288 5.49122,11.84275 7.41873,20.35287 7.43895,32.84352 0.0195,12.05622 -1.59186,18.7283 -7.12454,29.5 -3.26864,6.3638 -10.14596,13.58926 -75.66949,79.5 -242.62475,244.05856 -266.25941,267.56365 -272.2269,270.73447 -10.28138,5.46301 -23.74618,7.73188 -36.82881,6.20578 z"
       id="path833"
       inkscape:connector-curvature="0" />
    <path
       style="fill:#464646"
       d="m 784.11233,1777.4195 c -20.59487,-5.5387 -37.86731,-24.8502 -45.72498,-51.1229 -2.11175,-7.0608 -2.72947,-11.5785 -3.13049,-22.8946 -0.73825,-20.8317 2.39927,-34.1039 12.03305,-50.902 5.11579,-8.9202 18.14582,-21.9248 26.21009,-26.159 12.54824,-6.5884 13.2294,-6.6764 54.98777,-7.1037 27.62287,-0.2826 38.19156,-0.7091 38.73469,-1.563 0.4108,-0.6459 0.75381,-20.4118 0.76223,-43.9243 L 868,1531 h 467.393 c 425.2788,0 467.4477,0.1425 468,1.5818 0.3339,0.87 0.607,20.6333 0.607,43.9185 v 42.3368 l 38.75,0.4238 c 32.3226,0.3536 39.5456,0.6932 43.5466,2.0477 17.9707,6.0837 33.2588,20.6257 42.3342,40.2682 5.4741,11.8478 7.7031,22.8218 7.7031,37.9232 0,16.4051 -2.4007,26.9183 -9.4557,41.4074 -4.4266,9.0913 -6.2253,11.5634 -14.2228,19.5479 -9.875,9.8588 -17.0631,14.212 -28.1155,17.0268 -5.2947,1.3484 -66.7494,1.5106 -550.5,1.4521 -472.21469,-0.057 -545.25549,-0.2583 -549.92757,-1.5147 z M 131,1749.5151 c -27.82541,-5.5522 -50.371326,-23.6385 -60.852714,-48.8159 -5.26029,-12.6358 -6.533016,-18.9479 -6.492384,-32.1992 0.05621,-18.3324 4.307275,-33.2024 13.251734,-46.3541 C 79.170645,1618.817 232.02444,1465.5332 449.37321,1248.6316 652.11795,1046.3039 818,880.25505 818,879.63404 818,879.01303 784.13832,844.64102 742.75181,803.2518 L 667.50363,727.99866 831.50067,563.99933 C 921.69904,473.7997 995.94455,400 996.49067,400 c 0.54613,0 37.89663,36.80797 83.00113,81.7955 45.1045,44.98752 142.0237,141.5715 215.376,214.63106 L 1428.2356,829.26212 1263.8678,993.6371 1099.5,1158.0121 1062.0067,1120.256 C 952.40434,1009.8856 936.42523,994 935.0074,994 c -0.84955,0 -167.36125,166.3093 -370.02601,369.5763 -265.36224,266.1507 -370.32111,370.803 -375.05535,373.9597 -16.64232,11.0971 -39.77683,15.8001 -58.92604,11.9791 z m 1072.7153,-415.5733 c -15.6363,-3.8431 -29.1668,-11.5981 -42.5063,-24.3626 -12.406,-11.8711 -21.0181,-26.0848 -25.799,-42.5792 -2.6934,-9.2922 -2.7058,-32.1821 -0.022,-40 4.7312,-13.7808 -2.3121,-6.3825 175.4548,-184.2944 92.7613,-92.83695 170.6345,-170.11648 173.0516,-171.73231 14.3658,-9.60357 35.8889,-11.36621 55.8281,-4.57206 29.6035,10.08721 54.6875,36.66214 62.3904,66.09877 3.0747,11.75005 2.9148,26.47022 -0.399,36.74394 -4.839,15.0016 14.1955,-4.79249 -259.7068,270.07036 -83.0959,83.3874 -87.8603,87.9827 -94.5074,91.1531 -3.85,1.8362 -9.3846,3.8323 -12.2992,4.4356 -8.0393,1.6642 -22.6142,1.2193 -31.4855,-0.9612 z M 569.06869,693.9766 c -18.43702,-3.88692 -33.3708,-12.10726 -47.84814,-26.33812 -18.64217,-18.32478 -28.19718,-39.72123 -28.21354,-63.17838 -0.008,-11.43817 1.57573,-18.66568 6.07344,-27.717 2.78109,-5.59677 20.51125,-23.66691 171.26091,-174.5449 101.32608,-101.41235 170.43746,-169.83642 173.89241,-172.16307 9.70417,-6.53503 17.20238,-8.54112 31.76623,-8.49883 15.01392,0.0436 21.32245,1.54243 35.5,8.43434 23.96662,11.65051 42.96391,33.41349 50.65485,58.02936 1.95261,6.2496 2.34344,9.66736 2.34422,20.5 0.001,15.10337 -2.12082,23.4535 -8.35067,32.86169 -5.26062,7.94448 -336.86752,341.43987 -343.50361,345.45985 -8.87598,5.37685 -15.95725,7.32034 -28.14479,7.7245 -6.05,0.20063 -12.99409,-0.0556 -15.43131,-0.56944 z"
       id="path831"
       inkscape:connector-curvature="0" />
    <path
       style="fill:#333333"
       d="m 788.0674,1777.8687 c -10.04829,-1.6735 -19.62982,-7.1862 -29.11334,-16.7502 -7.26101,-7.3227 -9.32206,-10.1972 -13.70786,-19.1185 -7.77644,-15.8182 -9.64256,-24.1618 -9.6174,-43 0.0187,-13.9811 0.28728,-16.3742 2.74115,-24.4211 2.89188,-9.4833 7.85039,-20.1365 12.53849,-26.9387 7.10075,-10.3028 19.44679,-20.2165 30.94574,-24.8489 5.481,-2.2081 6.75514,-2.2823 43.64582,-2.5398 20.9,-0.1459 39.0125,-0.4957 40.25,-0.7774 l 2.25,-0.5122 V 1575.4809 1532 h 467.5 467.5 v 42.8 c 0,31.9556 0.304,43.104 1.2,44 0.8896,0.8896 10.6644,1.2 37.7899,1.2 39.9678,0 42.723,0.3023 53.8224,5.9053 17.0373,8.6003 30.8728,26.9539 37.3862,49.5947 2.0021,6.9593 2.2935,10.1463 2.2398,24.5 -0.056,15.0458 -0.3033,17.2888 -2.8037,25.4507 -7.6272,24.8962 -23.8012,43.4349 -44.1346,50.5871 l -7,2.4622 -544,0.1367 c -320.5478,0.081 -546.23148,-0.2349 -549.4326,-0.768 z M 127,1748.0558 c -16.41147,-4.6049 -26.80564,-10.1476 -36.981733,-19.7206 -8.965693,-8.4342 -14.651796,-16.6727 -19.654604,-28.4772 -4.635732,-10.9382 -6.325049,-19.1955 -6.346299,-31.02 -0.03552,-19.7658 5.10736,-35.8517 16.093757,-50.338 2.085592,-2.75 168.963789,-169.6758 370.840429,-370.9462 C 652.8282,1046.2833 818,880.90719 818,880.05124 818,879.19529 784.475,844.97223 743.5,804 702.525,763.02777 669,728.82838 669,728.00137 c 0,-0.82701 73.55661,-75.05924 163.45914,-164.96051 l 163.45914,-163.45684 28.29082,27.95152 C 1115.0773,517.31381 1427,828.55434 1427,829.44555 c 0,1.35374 -326.1737,327.55955 -327.5072,327.53955 -0.5461,-0.01 -37.4025,-36.9083 -81.9033,-82 C 973.08866,1029.8933 936.1364,993 935.47332,993 c -0.66308,0 -167.42833,166.5729 -370.58946,370.162 -276.33142,276.9136 -371.03907,371.2378 -375.95445,374.4324 -7.56221,4.9149 -16.61795,8.7109 -25.92941,10.8693 -9.20292,2.1333 -27.69011,1.9238 -36,-0.4079 z m 1081.5,-413.4924 c -54.5162,-10.8205 -90.5546,-71.7907 -68.8986,-116.5634 3.5473,-7.3339 7.3735,-11.2447 172.7631,-176.5793 182.8456,-182.78471 172.586,-173.08902 187.1771,-176.88951 8.4184,-2.19273 24.3157,-1.99736 33.7469,0.41472 32.8919,8.41234 60.9732,36.87139 68.8268,69.75274 3.996,16.73046 1.2982,35.13914 -6.9964,47.74135 -5.0398,7.65696 -334.789,339.4813 -342.469,344.624 -11.2403,7.527 -28.8988,10.5265 -44.1499,7.4994 z M 572.5,693.91192 C 524.33592,687.13531 485.03154,635.25728 494.43835,590.878 497.78323,575.0976 485.61018,588.08745 670.83908,402.641 782.18587,291.16344 841.5248,232.44803 845.45847,229.85646 c 9.09661,-5.99299 17.79696,-8.28539 31.04153,-8.17894 16.50561,0.13266 31.08415,4.97274 47,15.604 7.88726,5.26843 24.12564,21.86924 28.33052,28.96283 15.6159,26.34391 16.96354,54.54115 3.60476,75.42428 -4.24617,6.63783 -335.29087,339.7225 -342.17151,344.28004 -6.26529,4.14996 -13.52117,6.70252 -22.66944,7.97493 -8.59282,1.19515 -9.52121,1.19455 -18.09433,-0.0117 z"
       id="path829"
       inkscape:connector-curvature="0" />
    <path
       style="fill:#1e1e1e"
       d="m 785.33537,1776.5774 c -17.53972,-4.2538 -35.16497,-21.5425 -43.19365,-42.3688 -9.69919,-25.1597 -7.95881,-55.4906 4.48383,-78.143 8.54197,-15.551 19.74006,-26.0035 34.63309,-32.3271 5.05024,-2.1443 6.71037,-2.2439 45.52894,-2.732 34.34467,-0.4318 40.42728,-0.7278 41.23468,-2.0065 0.55735,-0.8827 0.95342,-19.0929 0.96243,-44.25 L 869,1532 h 466.4695 466.4694 l 0.2806,43.4175 c 0.1543,23.8796 0.6548,43.7921 1.1122,44.25 0.4575,0.4579 18.9075,1.0618 41,1.3421 45.8003,0.581 44.847,0.4197 58.3016,9.8697 11.4519,8.0434 20.5534,19.9437 26.3775,34.4886 5.0076,12.506 6.2859,20.9702 5.7526,38.0894 -0.4183,13.4236 -0.8049,16.0652 -3.5924,24.5427 -8.2072,24.9611 -26.3124,43.5215 -47.2741,48.4626 -5.6618,1.3346 -68.854,1.4998 -549.8969,1.4376 -431.77732,-0.056 -544.56165,-0.3278 -548.66463,-1.3228 z M 136.5,1749.443 c -1.1,-0.2545 -4.47378,-0.9654 -7.49729,-1.5799 -31.166467,-6.334 -56.870517,-32.2882 -63.041611,-63.6553 -1.882685,-9.5695 -0.765726,-31.9405 2.032497,-40.7078 2.724783,-8.5372 6.032508,-15.2375 11.107599,-22.5 C 81.21508,1617.975 248.55708,1450.3736 450.97231,1248.5524 653.38754,1046.7312 819,880.90734 819,880.05487 819,879.20241 785.13832,844.64102 743.75182,803.2518 L 668.50363,727.99866 832.00067,564.49933 C 921.92404,474.5747 995.77908,401 996.12299,401 997.26,401 1426,828.25937 1426,829.39246 c 0,1.38651 -325.1312,326.61194 -326.5011,326.59574 -0.5494,-0.01 -37.1873,-36.6815 -81.4176,-81.5 -54.47163,-55.1961 -81.09015,-81.49987 -82.49995,-81.52438 C 934.11953,992.93842 822.91957,1103.6555 562,1364.923 l -371.5,371.9953 -9.5,4.4519 c -5.225,2.4485 -12.52603,5.185 -16.22451,6.0811 -6.69292,1.6216 -24.46398,2.8734 -28.27549,1.9917 z m 1070,-415.8464 c -29.0729,-6.6563 -54.9257,-28.5881 -66.1488,-56.1162 -8.4255,-20.6661 -8.4795,-42.001 -0.1505,-59.4275 2.9201,-6.1096 14.5706,-17.9928 172.2156,-175.6559 108.8105,-108.82286 170.7014,-170.01728 173.6219,-171.66797 9.4539,-5.34353 16.5377,-7.07268 28.9618,-7.0696 23.2428,0.006 42.8641,8.84005 61.5399,27.70777 9.9463,10.0485 16.7583,20.15819 21.3142,31.6328 4.3157,10.86938 5.4737,18.22985 4.9135,31.23183 -0.5354,12.4299 -2.2839,18.4217 -8.0391,27.54947 -4.1936,6.65097 -335.2672,340.0606 -342.2285,344.6432 -8.8328,5.8146 -15.646,7.77 -28.5,8.1795 -7.4487,0.2373 -13.6137,-0.1176 -17.5,-1.0074 z M 567.5,692.41 C 535.72226,685.32793 509.01616,661.11184 498.16354,629.53831 492.17288,612.10968 492.55778,593.26186 499.19561,579 502.03444,572.90055 512.67463,562.03723 671.86044,402.7142 765.1622,309.33201 843.525,231.62952 846,230.042 c 18.89992,-12.12286 48.2581,-10.04079 73.11768,5.18548 10.75053,6.5846 26.94357,22.58203 32.68347,32.28865 14.79736,25.02352 16.15777,51.81455 3.70965,73.05566 -3.56122,6.07675 -336.53822,340.96341 -343.30679,345.27568 -11.20854,7.14099 -29.83751,9.87571 -44.70401,6.56253 z"
       id="path827"
       inkscape:connector-curvature="0" />
  </g>
</svg>
